<svg width="200" height="200" viewBox="0 0 200 200" fill="none" xmlns="http://www.w3.org/2000/svg">
  <!-- Circular background -->
  <circle cx="100" cy="100" r="90" fill="#E5E7EB" opacity="0.3"/>
  <circle cx="100" cy="100" r="70" fill="#F3F4F6" opacity="0.5"/>
  
  <!-- Stars -->
  <g fill="#F59E0B">
    <polygon points="40,30 42,36 48,36 43,40 45,46 40,42 35,46 37,40 32,36 38,36" />
    <polygon points="160,50 161,54 165,54 162,57 163,61 160,58 157,61 158,57 155,54 159,54" />
    <polygon points="170,120 171,123 174,123 172,125 173,128 170,126 167,128 168,125 166,123 169,123" />
    <polygon points="30,140 31,143 34,143 32,145 33,148 30,146 27,148 28,145 26,143 29,143" />
  </g>
  
  <!-- Rocket body -->
  <g transform="translate(80, 60)">
    <!-- Main rocket body -->
    <ellipse cx="20" cy="40" rx="12" ry="35" fill="url(#rocketGradient)"/>
    
    <!-- Rocket tip -->
    <ellipse cx="20" cy="15" rx="8" ry="12" fill="#8B5CF6"/>
    
    <!-- Rocket fins -->
    <path d="M8 65 L15 75 L25 75 L32 65" fill="#A855F7"/>
    
    <!-- Rocket window -->
    <circle cx="20" cy="30" r="4" fill="#F3F4F6" stroke="#D1D5DB" stroke-width="1"/>
    
    <!-- Rocket flame -->
    <ellipse cx="20" cy="80" rx="6" ry="12" fill="#F59E0B"/>
    <ellipse cx="20" cy="85" rx="3" ry="8" fill="#EF4444"/>
  </g>
  
  <defs>
    <linearGradient id="rocketGradient" x1="0%" y1="0%" x2="100%" y2="100%">
      <stop offset="0%" style="stop-color:#A855F7;stop-opacity:1" />
      <stop offset="100%" style="stop-color:#7C3AED;stop-opacity:1" />
    </linearGradient>
  </defs>
</svg> 